<?xml version="1.0" encoding="UTF-8"?>
<svg width="280px" height="320px" viewBox="0 0 280 320" version="1.1" xmlns="http://www.w3.org/2000/svg" xmlns:xlink="http://www.w3.org/1999/xlink">
    <!-- Generator: Sketch 41.2 (35397) - http://www.bohemiancoding.com/sketch -->
    <title>hero</title>
    <desc>Created with Sketch.</desc>
    <defs>
        <ellipse id="path-1" cx="22.2850679" cy="22.3314607" rx="22.2850679" ry="22.3314607"></ellipse>
        <mask id="mask-2" maskContentUnits="userSpaceOnUse" maskUnits="objectBoundingBox" x="0" y="0" width="44.5701357" height="44.6629213" fill="white">
            <use xlink:href="#path-1"></use>
        </mask>
    </defs>
    <g id="Page-1" stroke="none" stroke-width="1" fill="none" fill-rule="evenodd">
        <g id="Artboard" transform="translate(-261.000000, -98.000000)">
            <g id="hero" transform="translate(261.000000, 98.000000)">
                <rect id="Rectangle" fill="#FFFFFF" x="0" y="0" width="280" height="320"></rect>
                <g id="core" transform="translate(34.000000, 16.000000)">
                    <g id="logo" transform="translate(16.000000, 0.000000)">
                        <rect id="Rectangle-2" x="0" y="0" width="181" height="73"></rect>
                        <g transform="translate(16.000000, 14.000000)">
                            <g id="icon" stroke="#D15462">
                                <use id="Oval" mask="url(#mask-2)" stroke-width="6" xlink:href="#path-1"></use>
                                <ellipse id="Oval-2" stroke-width="3" cx="16.3686782" cy="16.4027543" rx="5.9163897" ry="5.92870637"></ellipse>
                            </g>
                            <path d="M62.0112769,15.2324367 L62.0112769,16.1401836 C61.0759521,16.8486726 60.3910396,17.2029118 59.9565187,17.2029118 C59.7061168,17.2029118 59.5330475,17.119887 59.4373056,16.9538349 C59.3415637,16.7877828 59.2715995,16.4501486 59.2274109,15.9409221 C58.1595205,16.7822528 57.0990107,17.2029118 56.0458498,17.2029118 C55.2799146,17.2029118 54.6318253,16.9519924 54.1015625,16.450146 C53.5712997,15.9482997 53.3061722,15.3394511 53.3061722,14.623582 C53.3061722,13.516568 53.8180155,12.6438851 54.8417173,12.005507 C55.8654192,11.3671289 57.3273024,10.9999747 59.2274109,10.9040335 L59.2274109,9.60883361 C59.2274109,8.22137604 58.4762165,7.52765767 56.9738051,7.52765767 C56.0163861,7.52765767 54.9816527,7.95938666 53.8695737,8.82285759 L53.8695737,7.70477902 C55.0184765,6.98152987 56.1121272,6.61991071 57.1505585,6.61991071 C58.0711537,6.61991071 58.8297128,6.84684518 59.4262585,7.30072093 C60.0228042,7.75459667 60.3210725,8.41326013 60.3210725,9.27673107 L60.3210725,15.6198897 C60.3210725,15.9667541 60.4020837,16.1401836 60.5641085,16.1401836 C60.7703218,16.1401836 61.2527064,15.8376044 62.0112769,15.2324367 Z M59.2274109,14.9888948 L59.2274109,11.8117805 C57.835471,11.7601198 56.6810619,12.0055043 55.7641491,12.5479411 C54.8472363,13.090378 54.3887868,13.7822514 54.3887868,14.623582 C54.3887868,15.095908 54.5802677,15.4944271 54.9632353,15.8191512 C55.3462029,16.1438753 55.8249052,16.3062349 56.3993566,16.3062349 C57.3273166,16.3062349 58.2699919,15.8671259 59.2274109,14.9888948 Z M65.5885248,1.53874179 L65.5885248,17.0036503 L64.4948631,17.0036503 L64.4948631,1.53874179 L65.5885248,1.53874179 Z M69.3425261,16.4390759 L69.3425261,1.53874179 L70.4251406,1.53874179 L70.4251406,8.28042343 C71.5077605,7.17340942 72.7302926,6.61991071 74.0927735,6.61991071 C75.4184306,6.61991071 76.5047166,7.08300463 77.3516642,8.00920636 C78.1986118,8.93540808 78.6220792,10.1291203 78.6220792,11.5903788 C78.6220792,13.2878003 78.1047125,14.6475621 77.0699635,15.669705 C76.0352145,16.691848 74.6598659,17.2029118 72.9438764,17.2029118 C71.8170679,17.2029118 70.6166298,16.9483024 69.3425261,16.4390759 Z M70.4251406,9.49813276 L70.4251406,15.66417 C71.2647234,15.981514 72.096929,16.1401836 72.9217823,16.1401836 C74.2327098,16.1401836 75.3171547,15.7176796 76.1751494,14.8726589 C77.0331441,14.0276382 77.4621351,12.9556957 77.4621351,11.6567993 C77.4621351,10.4538441 77.1307258,9.46492638 76.4678972,8.69001657 C75.8050687,7.91510676 74.9691808,7.52765767 73.9602085,7.52765767 C72.7523876,7.52765767 71.5740434,8.18447613 70.4251406,9.49813276 Z M90.307889,11.5350284 L82.2987509,11.5350284 C82.2766566,11.7121506 82.2656096,11.8892702 82.2656096,12.0663924 C82.2656096,13.2029268 82.6706654,14.1660146 83.4807892,14.9556846 C84.290913,15.7453546 85.2483176,16.1401836 86.3530319,16.1401836 C87.6418651,16.1401836 88.9012205,15.6346548 90.1311357,14.623582 L90.1311357,15.8523614 C88.9675033,16.7527328 87.6639601,17.2029118 86.2204668,17.2029118 C84.7548793,17.2029118 83.5433942,16.693693 82.5859752,15.6752401 C81.6285562,14.6567872 81.1498538,13.3616002 81.1498538,11.7896403 C81.1498538,10.2988614 81.5917329,9.06455933 82.4755043,8.08669695 C83.3592757,7.10883457 84.471338,6.61991071 85.8117246,6.61991071 C87.0710988,6.61991071 88.1352909,7.06086468 89.0043328,7.94278585 C89.8733746,8.82470701 90.307889,10.0221092 90.307889,11.5350284 Z M82.442363,10.6604917 L89.0264269,10.6604917 C88.6434593,8.67524653 87.5719026,7.68263885 85.8117246,7.68263885 C84.9795065,7.68263885 84.2596119,7.94278325 83.6520191,8.46307983 C83.0444262,8.98337642 82.6412116,9.71583971 82.442363,10.6604917 Z M100.292447,7.82654996 L99.6627635,8.84499776 C98.8158159,8.07008795 98.1345857,7.68263885 97.6190524,7.68263885 C96.6027153,7.68263885 95.5164293,8.65679658 94.3601617,10.6051412 L94.3601617,17.0036503 L93.2775472,17.0036503 L93.2775472,6.81917224 L94.3601617,6.81917224 L94.3601617,9.49813276 L94.40435,9.49813276 C95.6195357,7.57930847 96.8052445,6.61991071 97.9615121,6.61991071 C98.6243406,6.61991071 99.4013113,7.02211977 100.292447,7.82654996 Z M105.361052,3.44279637 L105.361052,6.81917224 L108.211201,6.81917224 L108.211201,7.70477902 L105.361052,7.70477902 L105.361052,13.7601154 C105.361052,14.7342877 105.440222,15.3745012 105.598564,15.6807751 C105.756907,15.987049 106.182215,16.1401836 106.874503,16.1401836 C107.404766,16.1401836 108.023397,15.974134 108.730414,15.6420298 L108.730414,16.6826178 C108.016032,17.0294822 107.31639,17.2029118 106.631467,17.2029118 C105.961274,17.2029118 105.40156,17.0110322 104.95231,16.6272674 C104.503059,16.2435025 104.278438,15.7121438 104.278438,15.0331752 L104.278438,7.70477902 L101.53876,7.70477902 L101.53876,6.81917224 L104.278438,6.81917224 L104.278438,4.39482367 L105.018592,3.44279637 L105.361052,3.44279637 Z M55.1620829,24.8904215 L55.1620829,26.7501957 L54.0684212,26.7501957 L54.0684212,24.8904215 L55.1620829,24.8904215 Z M55.1620829,30.1708519 L55.1620829,40.3553299 L54.0684212,40.3553299 L54.0684212,30.1708519 L55.1620829,30.1708519 Z M59.9986987,30.1708519 L59.9986987,31.9420655 L60.042887,31.9420655 C60.8898346,30.6284089 62.0055793,29.9715904 63.3901544,29.9715904 C64.5390572,29.9715904 65.4559563,30.3405895 66.1408791,31.0785989 C66.8258019,31.8166082 67.1682582,32.8387358 67.1682582,34.1450124 L67.1682582,40.3553299 L66.0856437,40.3553299 L66.0856437,34.5546055 C66.0856437,32.2077358 65.1650623,31.0343185 63.3238719,31.0343185 C61.9761205,31.0343185 60.8677406,31.7612468 59.9986987,33.2151253 L59.9986987,40.3553299 L58.9160842,40.3553299 L58.9160842,30.1708519 L59.9986987,30.1708519 Z M71.8612619,30.1708519 L71.8612619,31.9420655 L71.9054503,31.9420655 C72.7523978,30.6284089 73.8681425,29.9715904 75.2527177,29.9715904 C76.4016205,29.9715904 77.3185195,30.3405895 78.0034423,31.0785989 C78.6883652,31.8166082 79.0308214,32.8387358 79.0308214,34.1450124 L79.0308214,40.3553299 L77.9482069,40.3553299 L77.9482069,34.5546055 C77.9482069,32.2077358 77.0276255,31.0343185 75.1864351,31.0343185 C73.8386838,31.0343185 72.7303038,31.7612468 71.8612619,33.2151253 L71.8612619,40.3553299 L70.7786474,40.3553299 L70.7786474,30.1708519 L71.8612619,30.1708519 Z M87.3693639,29.9715904 C88.8423162,29.9715904 90.0703718,30.4771192 91.0535674,31.488192 C92.0367631,32.4992648 92.5283536,33.7612419 92.5283536,35.274161 C92.5283536,36.7797001 92.0367631,38.0361421 91.0535674,39.0435249 C90.0703718,40.0509077 88.8423162,40.5545915 87.3693639,40.5545915 C85.8964116,40.5545915 84.6646737,40.0509077 83.6741132,39.0435249 C82.6835528,38.0361421 82.18828,36.7797001 82.18828,35.274161 C82.18828,33.7612419 82.6835528,32.4992648 83.6741132,31.488192 C84.6646737,30.4771192 85.8964116,29.9715904 87.3693639,29.9715904 Z M87.3693639,39.4918633 C88.5109019,39.4918633 89.4646242,39.0914993 90.2305594,38.2907591 C90.9964946,37.490019 91.3794565,36.4844963 91.3794565,35.274161 C91.3794565,34.0712058 90.9946535,33.0638382 90.2250359,32.2520279 C89.4554183,31.4402176 88.5035372,31.0343185 87.3693639,31.0343185 C86.2204611,31.0343185 85.2612153,31.4365276 84.4915977,32.2409578 C83.7219801,33.045388 83.3371771,34.0564456 83.3371771,35.274161 C83.3371771,36.4844963 83.7219801,37.490019 84.4915977,38.2907591 C85.2612153,39.0914993 86.2204611,39.4918633 87.3693639,39.4918633 Z M103.474009,30.1708519 L99.1104091,40.5545915 L98.4365368,40.5545915 L93.8188544,30.1708519 L94.9235631,30.1708519 L98.7458553,38.7501677 L102.413488,30.1708519 L103.474009,30.1708519 Z M113.767885,38.5841164 L113.767885,39.4918633 C112.832561,40.2003523 112.147648,40.5545915 111.713127,40.5545915 C111.462725,40.5545915 111.289656,40.4715667 111.193914,40.3055146 C111.098172,40.1394625 111.028208,39.8018283 110.984019,39.2926018 C109.916129,40.1339325 108.855619,40.5545915 107.802458,40.5545915 C107.036523,40.5545915 106.388434,40.3036721 105.858171,39.8018257 C105.327908,39.2999794 105.062781,38.6911308 105.062781,37.9752617 C105.062781,36.8682477 105.574624,35.9955647 106.598326,35.3571867 C107.622028,34.7188086 109.083911,34.3516544 110.984019,34.2557132 L110.984019,32.9605133 C110.984019,31.5730557 110.232825,30.8793374 108.730414,30.8793374 C107.772995,30.8793374 106.738261,31.3110663 105.626182,32.1745373 L105.626182,31.0564587 C106.775085,30.3332096 107.868736,29.9715904 108.907167,29.9715904 C109.827762,29.9715904 110.586321,30.1985249 111.182867,30.6524006 C111.779413,31.1062764 112.077681,31.7649398 112.077681,32.6284108 L112.077681,38.9715693 C112.077681,39.3184337 112.158692,39.4918633 112.320717,39.4918633 C112.52693,39.4918633 113.009315,39.189284 113.767885,38.5841164 Z M110.984019,38.3405745 L110.984019,35.1634602 C109.59208,35.1117995 108.43767,35.3571839 107.520758,35.8996208 C106.603845,36.4420577 106.145395,37.1339311 106.145395,37.9752617 C106.145395,38.4475877 106.336876,38.8461068 106.719844,39.1708309 C107.102811,39.495555 107.581514,39.6579146 108.155965,39.6579146 C109.083925,39.6579146 110.0266,39.2188056 110.984019,38.3405745 Z M118.063194,26.7944761 L118.063194,30.1708519 L120.913342,30.1708519 L120.913342,31.0564587 L118.063194,31.0564587 L118.063194,37.1117951 C118.063194,38.0859674 118.142364,38.7261809 118.300706,39.0324548 C118.459049,39.3387287 118.884357,39.4918633 119.576645,39.4918633 C120.106908,39.4918633 120.725538,39.3258137 121.432556,38.9937095 L121.432556,40.0342975 C120.718174,40.3811619 120.018532,40.5545915 119.333609,40.5545915 C118.663416,40.5545915 118.103702,40.3627119 117.654452,39.9789471 C117.205201,39.5951822 116.980579,39.0638235 116.980579,38.3848549 L116.980579,31.0564587 L114.240902,31.0564587 L114.240902,30.1708519 L116.980579,30.1708519 L116.980579,27.7465034 L117.720734,26.7944761 L118.063194,26.7944761 Z M124.943521,24.8904215 L124.943521,26.7501957 L123.849859,26.7501957 L123.849859,24.8904215 L124.943521,24.8904215 Z M124.943521,30.1708519 L124.943521,40.3553299 L123.849859,40.3553299 L123.849859,30.1708519 L124.943521,30.1708519 Z M133.425675,29.9715904 C134.898628,29.9715904 136.126683,30.4771192 137.109879,31.488192 C138.093075,32.4992648 138.584665,33.7612419 138.584665,35.274161 C138.584665,36.7797001 138.093075,38.0361421 137.109879,39.0435249 C136.126683,40.0509077 134.898628,40.5545915 133.425675,40.5545915 C131.952723,40.5545915 130.720985,40.0509077 129.730425,39.0435249 C128.739864,38.0361421 128.244592,36.7797001 128.244592,35.274161 C128.244592,33.7612419 128.739864,32.4992648 129.730425,31.488192 C130.720985,30.4771192 131.952723,29.9715904 133.425675,29.9715904 Z M133.425675,39.4918633 C134.567214,39.4918633 135.520936,39.0914993 136.286871,38.2907591 C137.052806,37.490019 137.435768,36.4844963 137.435768,35.274161 C137.435768,34.0712058 137.050965,33.0638382 136.281347,32.2520279 C135.51173,31.4402176 134.559849,31.0343185 133.425675,31.0343185 C132.276773,31.0343185 131.317527,31.4365276 130.547909,32.2409578 C129.778292,33.045388 129.393489,34.0564456 129.393489,35.274161 C129.393489,36.4844963 129.778292,37.490019 130.547909,38.2907591 C131.317527,39.0914993 132.276773,39.4918633 133.425675,39.4918633 Z M142.813691,30.1708519 L142.813691,31.9420655 L142.85788,31.9420655 C143.704827,30.6284089 144.820572,29.9715904 146.205147,29.9715904 C147.35405,29.9715904 148.270949,30.3405895 148.955872,31.0785989 C149.640794,31.8166082 149.983251,32.8387358 149.983251,34.1450124 L149.983251,40.3553299 L148.900636,40.3553299 L148.900636,34.5546055 C148.900636,32.2077358 147.980055,31.0343185 146.138864,31.0343185 C144.791113,31.0343185 143.682733,31.7612468 142.813691,33.2151253 L142.813691,40.3553299 L141.731077,40.3553299 L141.731077,30.1708519 L142.813691,30.1708519 Z" id="albert-innovation" fill="#4A4A4A"></path>
                        </g>
                    </g>
                    <text id="A-Logic-Phenomenon-A" font-family="GillSans-Light, Gill Sans" font-size="20" font-weight="300" line-spacing="30" letter-spacing="0.681818604" fill="#000000">
                        <tspan x="14.8704685" y="104">A Logic Phenomenon</tspan>
                        <tspan x="7.94930309" y="134">A Mathematical Object</tspan>
                        <tspan x="29.1811044" y="164">A Curious Thinker</tspan>
                        <tspan x="24.4416686" y="194">An Altruistic Maker</tspan>
                        <tspan x="0.0546828508" y="224">An Open-minded Liberal</tspan>
                    </text>
                    <text id="COMING-SOON." font-family="FuturaStd-CondensedExtraBd, Futura Std" font-size="18" font-style="condensed" font-weight="600" letter-spacing="0.613636732" fill="#D4D4D4">
                        <tspan x="43.4681796" y="267">COMING SOON.</tspan>
                    </text>
                </g>
            </g>
        </g>
    </g>
</svg>