<?xml version="1.0" encoding="UTF-8"?>
<svg width="104px" height="32px" viewBox="0 0 104 32" version="1.1" xmlns="http://www.w3.org/2000/svg" xmlns:xlink="http://www.w3.org/1999/xlink">
    <!-- Generator: Sketch 41.2 (35397) - http://www.bohemiancoding.com/sketch -->
    <title>logo</title>
    <desc>Created with Sketch.</desc>
    <defs>
        <ellipse id="path-1" cx="15.3286972" cy="15.295521" rx="15.3286972" ry="15.295521"></ellipse>
        <mask id="mask-2" maskContentUnits="userSpaceOnUse" maskUnits="objectBoundingBox" x="0" y="0" width="30.6573945" height="30.591042" fill="white">
            <use xlink:href="#path-1"></use>
        </mask>
    </defs>
    <g id="Page-1" stroke="none" stroke-width="1" fill="none" fill-rule="evenodd">
        <g id="Artboard-2" transform="translate(-322.000000, -116.000000)">
            <g id="logo" transform="translate(311.000000, 107.000000)">
                <rect id="Rectangle-2" x="0" y="0" width="124.500146" height="50"></rect>
                <g transform="translate(11.005538, 9.589041)">
                    <g id="icon" stroke="#D15462">
                        <use id="Oval" mask="url(#mask-2)" stroke-width="2" xlink:href="#path-1"></use>
                        <ellipse id="Oval-2" cx="11.2591316" cy="11.2347632" rx="4.06956564" ry="4.06075779"></ellipse>
                    </g>
                    <path d="M42.6542155,10.4331758 L42.6542155,11.0549203 C42.010856,11.5401867 41.5397416,11.7828163 41.2408581,11.7828163 C41.0686201,11.7828163 40.9495751,11.72595 40.8837194,11.6122157 C40.8178637,11.4984814 40.7697391,11.267225 40.7393441,10.9184398 C40.0047999,11.4946937 39.2753324,11.7828163 38.5509197,11.7828163 C38.0240742,11.7828163 37.5782885,11.6109537 37.2135493,11.2672233 C36.84881,10.9234929 36.6664432,10.5064733 36.6664432,10.0161521 C36.6664432,9.2579233 37.0185125,8.66019524 37.7226619,8.22294998 C38.4268112,7.78570472 39.4323619,7.53422928 40.7393441,7.46851612 L40.7393441,6.58139288 C40.7393441,5.63107948 40.222638,5.15592991 39.1892102,5.15592991 C38.5306532,5.15592991 37.8189159,5.4516347 37.0539766,6.04305314 L37.0539766,5.27724591 C37.844245,4.78186977 38.5965083,4.53418542 39.3107893,4.53418542 C39.9440171,4.53418542 40.465789,4.68961999 40.8761207,5.00049379 C41.2864523,5.31136759 41.491615,5.76250694 41.491615,6.35392539 L41.491615,10.6985546 C41.491615,10.9361329 41.5473382,11.0549203 41.6587863,11.0549203 C41.8006294,11.0549203 42.1324358,10.8476742 42.6542155,10.4331758 Z M40.7393441,10.2663663 L40.7393441,8.09026061 C39.7819037,8.0548766 38.9878479,8.22294812 38.357153,8.59448022 C37.7264581,8.96601232 37.4111153,9.4398982 37.4111153,10.0161521 C37.4111153,10.339663 37.5428248,10.6126213 37.8062475,10.8350351 C38.0696703,11.0574488 38.3989438,11.1686541 38.794078,11.1686541 C39.4323716,11.1686541 40.0807872,10.8678945 40.7393441,10.2663663 Z M45.1148116,1.05393273 L45.1148116,11.6463358 L44.3625407,11.6463358 L44.3625407,1.05393273 L45.1148116,1.05393273 Z M47.6969867,11.2596411 L47.6969867,1.05393273 L48.4416589,1.05393273 L48.4416589,5.6715229 C49.1863348,4.91329412 50.0272488,4.53418542 50.964426,4.53418542 C51.876274,4.53418542 52.6234716,4.85137303 53.2060412,5.48575778 C53.7886108,6.12014252 54.0798913,6.93775362 54.0798913,7.93861561 C54.0798913,9.10123307 53.7240226,10.0325768 53.0122745,10.7326747 C52.3005264,11.4327726 51.3544983,11.7828163 50.1741616,11.7828163 C49.3990907,11.7828163 48.573374,11.6084263 47.6969867,11.2596411 Z M48.4416589,6.50557039 L48.4416589,10.7288836 C49.0191627,10.9462425 49.5915921,11.0549203 50.1589642,11.0549203 C51.0606806,11.0549203 51.8066118,10.765534 52.3967801,10.1867527 C52.9869485,9.60797139 53.2820282,8.87376421 53.2820282,7.98410911 C53.2820282,7.16016717 53.0540696,6.48282629 52.5981456,5.95206614 C52.1422215,5.421306 51.5672593,5.15592991 50.8732416,5.15592991 C50.0424467,5.15592991 49.2319273,5.60580557 48.4416589,6.50557039 Z M62.1179301,7.90070436 L56.6088756,7.90070436 C56.5936781,8.02202096 56.5860795,8.14333575 56.5860795,8.26465235 C56.5860795,9.04310057 56.8646956,9.70274971 57.421936,10.2436196 C57.9791765,10.7844894 58.6377236,11.0549203 59.397597,11.0549203 C60.2841159,11.0549203 61.1503586,10.7086677 61.996351,10.0161521 L61.996351,10.8577818 C61.195951,11.4744745 60.2993138,11.7828163 59.3064126,11.7828163 C58.2983139,11.7828163 57.4649986,11.4340363 56.8064417,10.7364658 C56.1478847,10.0388953 55.8186112,9.15178097 55.8186112,8.07509611 C55.8186112,7.05401469 56.122556,6.20860228 56.7304547,5.53883353 C57.3383534,4.86906477 58.1032812,4.53418542 59.0252609,4.53418542 C59.8915165,4.53418542 60.6235169,4.83620869 61.221284,5.44026428 C61.819051,6.04431987 62.1179301,6.86445836 62.1179301,7.90070436 Z M56.7076586,7.30170662 L61.2364814,7.30170662 C60.9730586,5.94194968 60.2359925,5.26208141 59.0252609,5.26208141 C58.4528229,5.26208141 57.9576462,5.4402625 57.5397158,5.79663002 C57.1217855,6.15299755 56.8444358,6.65468473 56.7076586,7.30170662 Z M68.9857698,5.36065066 L68.5526441,6.05821764 C67.9700745,5.5274575 67.5014929,5.26208141 67.1468853,5.26208141 C66.4478018,5.26208141 65.7006042,5.92931272 64.9052701,7.26379537 L64.9052701,11.6463358 L64.1605979,11.6463358 L64.1605979,4.67066592 L64.9052701,4.67066592 L64.9052701,6.50557039 L64.9356648,6.50557039 C65.7715256,5.19130717 66.5871108,4.53418542 67.3824449,4.53418542 C67.838369,4.53418542 68.3728052,4.80967108 68.9857698,5.36065066 Z M72.4721897,2.35807971 L72.4721897,4.67066592 L74.4326533,4.67066592 L74.4326533,5.27724591 L72.4721897,5.27724591 L72.4721897,9.42473658 C72.4721897,10.0919779 72.5266465,10.5304803 72.6355617,10.7402569 C72.7444769,10.9500336 73.0370238,11.0549203 73.5132111,11.0549203 C73.8779503,11.0549203 74.303473,10.9411877 74.789792,10.7137191 L74.789792,11.4264505 C74.2984072,11.6640289 73.8171613,11.7828163 73.3460398,11.7828163 C72.8850499,11.7828163 72.5000532,11.6513919 72.191038,11.3885393 C71.8820228,11.1256867 71.7275175,10.7617423 71.7275175,10.2966953 L71.7275175,5.27724591 L69.843041,5.27724591 L69.843041,4.67066592 L71.7275175,4.67066592 L71.7275175,3.0101532 L72.2366302,2.35807971 L72.4721897,2.35807971 Z M37.9430241,17.0482339 L37.9430241,18.3220519 L37.1907532,18.3220519 L37.1907532,17.0482339 L37.9430241,17.0482339 Z M37.9430241,20.6649671 L37.9430241,27.640637 L37.1907532,27.640637 L37.1907532,20.6649671 L37.9430241,20.6649671 Z M41.2698714,20.6649671 L41.2698714,21.8781271 L41.3002662,21.8781271 C41.8828358,20.9783622 42.6502964,20.5284866 43.6026711,20.5284866 C44.3929394,20.5284866 45.0236248,20.7812257 45.4947463,21.2867116 C45.9658678,21.7921974 46.2014251,22.4922848 46.2014251,23.3869948 L46.2014251,27.640637 L45.4567529,27.640637 L45.4567529,23.667538 C45.4567529,22.060093 44.8235345,21.2563826 43.5570789,21.2563826 C42.6300334,21.2563826 41.8676385,21.7542787 41.2698714,22.7500858 L41.2698714,27.640637 L40.5251992,27.640637 L40.5251992,20.6649671 L41.2698714,20.6649671 Z M49.4294894,20.6649671 L49.4294894,21.8781271 L49.4598842,21.8781271 C50.0424538,20.9783622 50.8099144,20.5284866 51.762289,20.5284866 C52.5525574,20.5284866 53.1832428,20.7812257 53.6543643,21.2867116 C54.1254858,21.7921974 54.361043,22.4922848 54.361043,23.3869948 L54.361043,27.640637 L53.6163708,27.640637 L53.6163708,23.667538 C53.6163708,22.060093 52.9831525,21.2563826 51.7166969,21.2563826 C50.7896513,21.2563826 50.0272565,21.7542787 49.4294894,22.7500858 L49.4294894,27.640637 L48.6848172,27.640637 L48.6848172,20.6649671 L49.4294894,20.6649671 Z M60.096677,20.5284866 C61.1098415,20.5284866 61.9545548,20.8747392 62.6308421,21.5672548 C63.3071294,22.2597704 63.645268,23.1241383 63.645268,24.1603843 C63.645268,25.1915754 63.3071294,26.0521522 62.6308421,26.7421403 C61.9545548,27.4321285 61.1098415,27.7771174 60.096677,27.7771174 C59.0835125,27.7771174 58.2362664,27.4321285 57.5549132,26.7421403 C56.8735601,26.0521522 56.5328886,25.1915754 56.5328886,24.1603843 C56.5328886,23.1241383 56.8735601,22.2597704 57.5549132,21.5672548 C58.2362664,20.8747392 59.0835125,20.5284866 60.096677,20.5284866 Z M60.096677,27.0492215 C60.8818795,27.0492215 61.5378937,26.7749995 62.0647392,26.2265474 C62.5915848,25.6780952 62.8550036,24.9893811 62.8550036,24.1603843 C62.8550036,23.3364423 62.5903183,22.6464645 62.0609399,22.09043 C61.5315614,21.5343956 60.8768137,21.2563826 60.096677,21.2563826 C59.3064087,21.2563826 58.6465952,21.5318682 58.1172167,22.0828478 C57.5878383,22.6338274 57.323153,23.3263326 57.323153,24.1603843 C57.323153,24.9893811 57.5878383,25.6780952 58.1172167,26.2265474 C58.6465952,26.7749995 59.3064087,27.0492215 60.096677,27.0492215 Z M71.1741942,20.6649671 L68.1727093,27.7771174 L67.7091888,27.7771174 L64.532934,20.6649671 L65.2928036,20.6649671 L67.9219523,26.5412107 L70.4447194,20.6649671 L71.1741942,20.6649671 Z M78.2547973,26.427477 L78.2547973,27.0492215 C77.6114378,27.5344879 77.1403234,27.7771174 76.8414399,27.7771174 C76.6692019,27.7771174 76.5501569,27.7202511 76.4843012,27.6065168 C76.4184455,27.4927825 76.3703209,27.2615262 76.3399259,26.912741 C75.6053817,27.4889948 74.8759142,27.7771174 74.1515015,27.7771174 C73.624656,27.7771174 73.1788703,27.6052548 72.8141311,27.2615245 C72.4493918,26.9177941 72.267025,26.5007745 72.267025,26.0104532 C72.267025,25.2522245 72.6190943,24.6544964 73.3232437,24.2172511 C74.027393,23.7800059 75.0329437,23.5285304 76.3399259,23.4628173 L76.3399259,22.575694 C76.3399259,21.6253806 75.8232198,21.1502311 74.789792,21.1502311 C74.131235,21.1502311 73.4194977,21.4459359 72.6545584,22.0373543 L72.6545584,21.2715471 C73.4448268,20.7761709 74.1970901,20.5284866 74.9113711,20.5284866 C75.5445989,20.5284866 76.0663708,20.6839211 76.4767025,20.9947949 C76.8870341,21.3056687 77.0921968,21.7568081 77.0921968,22.3482265 L77.0921968,26.6928557 C77.0921968,26.9304341 77.14792,27.0492215 77.2593681,27.0492215 C77.4012112,27.0492215 77.7330176,26.8419754 78.2547973,26.427477 Z M76.3399259,26.2606675 L76.3399259,24.0845618 C75.3824855,24.0491778 74.5884297,24.2172493 73.9577348,24.5887814 C73.3270399,24.9603135 73.0116971,25.4341994 73.0116971,26.0104532 C73.0116971,26.3339642 73.1434066,26.6069224 73.4068293,26.8293362 C73.6702521,27.05175 73.9995256,27.1629552 74.3946598,27.1629552 C75.0329534,27.1629552 75.681369,26.8621956 76.3399259,26.2606675 Z M81.2093086,18.3523809 L81.2093086,20.6649671 L83.1697721,20.6649671 L83.1697721,21.2715471 L81.2093086,21.2715471 L81.2093086,25.4190377 C81.2093086,26.0862791 81.2637654,26.5247815 81.3726805,26.7345581 C81.4815957,26.9443347 81.7741426,27.0492215 82.2503299,27.0492215 C82.6150691,27.0492215 83.0405919,26.9354889 83.5269108,26.7080202 L83.5269108,27.4207517 C83.035526,27.6583301 82.5542801,27.7771174 82.0831586,27.7771174 C81.6221688,27.7771174 81.237172,27.6456931 80.9281568,27.3828405 C80.6191417,27.1199878 80.4646364,26.7560435 80.4646364,26.2909965 L80.4646364,21.2715471 L78.5801598,21.2715471 L78.5801598,20.6649671 L80.4646364,20.6649671 L80.4646364,19.0044544 L80.973749,18.3523809 L81.2093086,18.3523809 Z M85.9419147,17.0482339 L85.9419147,18.3220519 L85.1896438,18.3220519 L85.1896438,17.0482339 L85.9419147,17.0482339 Z M85.9419147,20.6649671 L85.9419147,27.640637 L85.1896438,27.640637 L85.1896438,20.6649671 L85.9419147,20.6649671 Z M91.7763317,20.5284866 C92.7894962,20.5284866 93.6342095,20.8747392 94.3104968,21.5672548 C94.9867841,22.2597704 95.3249227,23.1241383 95.3249227,24.1603843 C95.3249227,25.1915754 94.9867841,26.0521522 94.3104968,26.7421403 C93.6342095,27.4321285 92.7894962,27.7771174 91.7763317,27.7771174 C90.7631672,27.7771174 89.9159211,27.4321285 89.2345679,26.7421403 C88.5532148,26.0521522 88.2125433,25.1915754 88.2125433,24.1603843 C88.2125433,23.1241383 88.5532148,22.2597704 89.2345679,21.5672548 C89.9159211,20.8747392 90.7631672,20.5284866 91.7763317,20.5284866 Z M91.7763317,27.0492215 C92.5615342,27.0492215 93.2175484,26.7749995 93.7443939,26.2265474 C94.2712395,25.6780952 94.5346583,24.9893811 94.5346583,24.1603843 C94.5346583,23.3364423 94.2699731,22.6464645 93.7405946,22.09043 C93.2112161,21.5343956 92.5564684,21.2563826 91.7763317,21.2563826 C90.9860634,21.2563826 90.3262499,21.5318682 89.7968714,22.0828478 C89.267493,22.6338274 89.0028077,23.3263326 89.0028077,24.1603843 C89.0028077,24.9893811 89.267493,25.6780952 89.7968714,26.2265474 C90.3262499,26.7749995 90.9860634,27.0492215 91.7763317,27.0492215 Z M98.2338418,20.6649671 L98.2338418,21.8781271 L98.2642366,21.8781271 C98.8468062,20.9783622 99.6142668,20.5284866 100.566641,20.5284866 C101.35691,20.5284866 101.987595,20.7812257 102.458717,21.2867116 C102.929838,21.7921974 103.165395,22.4922848 103.165395,23.3869948 L103.165395,27.640637 L102.420723,27.640637 L102.420723,23.667538 C102.420723,22.060093 101.787505,21.2563826 100.521049,21.2563826 C99.5940037,21.2563826 98.8316089,21.7542787 98.2338418,22.7500858 L98.2338418,27.640637 L97.4891696,27.640637 L97.4891696,20.6649671 L98.2338418,20.6649671 Z" id="albert-innovation" fill="#4A4A4A"></path>
                </g>
            </g>
        </g>
    </g>
</svg>